<?xml version="1.0" encoding="UTF-8" standalone="no"?>
<svg
   xmlns:dc="http://purl.org/dc/elements/1.1/"
   xmlns:cc="http://creativecommons.org/ns#"
   xmlns:rdf="http://www.w3.org/1999/02/22-rdf-syntax-ns#"
   xmlns:svg="http://www.w3.org/2000/svg"
   xmlns="http://www.w3.org/2000/svg"
   xmlns:sodipodi="http://sodipodi.sourceforge.net/DTD/sodipodi-0.dtd"
   xmlns:inkscape="http://www.inkscape.org/namespaces/inkscape"
   width="110.30332mm"
   height="3.6882401mm"
   viewBox="0 0 110.30332 3.6882401"
   version="1.1"
   id="svg8"
   inkscape:version="1.0.2 (e86c870879, 2021-01-15)">
  <defs
     id="defs2" />
  <sodipodi:namedview
     id="base"
     pagecolor="#ffffff"
     bordercolor="#666666"
     borderopacity="1.0"
     inkscape:pageopacity="0.0"
     inkscape:pageshadow="2"
     inkscape:zoom="1.979899"
     inkscape:cx="278.25974"
     inkscape:cy="30.814398"
     inkscape:document-units="mm"
     inkscape:current-layer="layer1"
     inkscape:document-rotation="0"
     showgrid="false"
     inkscape:window-width="1465"
     inkscape:window-height="1040"
     inkscape:window-x="26"
     inkscape:window-y="0"
     inkscape:window-maximized="0"
     fit-margin-top="0"
     fit-margin-left="0"
     fit-margin-right="0"
     fit-margin-bottom="0" />
  <metadata
     id="metadata5">
    <rdf:RDF>
      <cc:Work
         rdf:about="">
        <dc:format>image/svg+xml</dc:format>
        <dc:type
           rdf:resource="http://purl.org/dc/dcmitype/StillImage" />
        <dc:title></dc:title>
      </cc:Work>
    </rdf:RDF>
  </metadata>
  <g
     inkscape:label="Warstwa 1"
     inkscape:groupmode="layer"
     id="layer1"
     transform="translate(-17.860308,-41.526098)">
    <path
       style="fill:#ffd116;stroke-width:0.264583"
       id="path33"
       d="m 20.627777,45.214338 c 11.864556,-0.391271 23.73827,-0.411678 35.608058,-0.459271 8.606417,-0.02222 17.2129,0.0013 25.819203,0.04686 1.946552,0.01029 11.238851,0.07866 13.498007,0.07138 1.90555,-0.0061 3.810878,-0.04297 5.716315,-0.06445 7.57319,-0.09703 15.12474,-0.701778 22.68551,-1.086315 0.75701,-0.03125 1.51403,-0.0625 2.27104,-0.09376 0,0 1.93772,-1.423001 1.93772,-1.423001 v 0 c -0.77964,0.04725 -1.55927,0.0945 -2.33891,0.141748 -7.71015,0.493511 -15.40791,1.20922 -23.13379,1.424755 -1.93577,0.04453 -3.871316,0.101269 -5.807338,0.133598 -3.736015,0.06238 -10.13447,0.09772 -13.75574,0.116592 -8.649301,0.04508 -17.298779,0.06916 -25.94819,0.04686 -11.448241,-0.04642 -22.901328,-0.0552 -34.343795,-0.459272 0,0 -2.20809,1.604272 -2.20809,1.604272 z" />
    <path
       style="fill:#e6e6e6;stroke-width:0.196272"
       id="path33-5"
       d="m 17.860308,43.198325 c 11.746604,-0.217476 23.502274,-0.228818 35.254057,-0.255271 8.520856,-0.01235 17.041776,7.05e-4 25.562519,0.02605 1.9272,0.0058 11.127119,0.04373 13.363816,0.03967 1.886605,-0.0035 3.772991,-0.02388 5.659488,-0.03583 7.497902,-0.05393 14.974382,-0.390062 22.459982,-0.603795 0.74948,-0.01737 1.49899,-0.03473 2.24846,-0.05212 0,0 1.91846,-0.790931 1.91846,-0.790931 v 0 c -0.77189,0.02626 -1.54377,0.05253 -2.31566,0.07878 -7.6335,0.274303 -15.25473,0.672107 -22.903805,0.791906 -1.916524,0.02475 -3.832831,0.05629 -5.749607,0.07426 -3.698872,0.03467 -10.033716,0.05432 -13.618986,0.0648 -8.563312,0.02505 -17.126801,0.03844 -25.690223,0.02605 -11.334427,-0.0258 -22.673652,-0.03068 -34.002363,-0.255271 0,0 -2.186138,0.891684 -2.186138,0.891684 z" />
  </g>
</svg>
